<svg width="21" height="19" viewBox="0 0 21 19" fill="none" xmlns="http://www.w3.org/2000/svg">
<path d="M9.83617 0.253C10.0192 0.0904881 10.2554 0.000732422 10.5002 0.000732422C10.7449 0.000732422 10.9812 0.0904881 11.1642 0.253L20.1642 8.253C20.3523 8.43172 20.4636 8.67657 20.4745 8.93582C20.4855 9.19508 20.3952 9.44844 20.2228 9.64238C20.0505 9.83632 19.8094 9.95566 19.5507 9.97518C19.2919 9.9947 19.0357 9.91288 18.8362 9.747L18.5002 9.45V17C18.5002 17.5304 18.2895 18.0391 17.9144 18.4142C17.5393 18.7893 17.0306 19 16.5002 19H4.50017C3.96974 19 3.46103 18.7893 3.08596 18.4142C2.71088 18.0391 2.50017 17.5304 2.50017 17V9.45L2.16417 9.747C1.96463 9.91288 1.70842 9.9947 1.44967 9.97518C1.19092 9.95566 0.949888 9.83632 0.777494 9.64238C0.6051 9.44844 0.514845 9.19508 0.525794 8.93582C0.536743 8.67657 0.648039 8.43172 0.836171 8.253L9.83617 0.253ZM4.50017 7.67V17H7.50017V12C7.50017 11.7348 7.60553 11.4804 7.79306 11.2929C7.9806 11.1054 8.23495 11 8.50017 11H12.5002C12.7654 11 13.0197 11.1054 13.2073 11.2929C13.3948 11.4804 13.5002 11.7348 13.5002 12V17H16.5002V7.671L10.5002 2.338L4.50017 7.67ZM11.5002 17V13H9.50017V17H11.5002Z" fill="black"/>
</svg>
